<svg class="nav-btn" fill="#ffffff" viewBox="2.4 2.4 28 28"
    style="fill-rule:evenodd;clip-rule:evenodd;stroke-linejoin:round;stroke-miterlimit:2;"
    version="1.1" xml:space="preserve" xmlns="http://www.w3.org/2000/svg"
    xmlns:serif="http://www.serif.com/" xmlns:xlink="http://www.w3.org/1999/xlink" stroke="#ffffff"><g id="SVGRepo_bgCarrier" stroke-width="0"></g><g id="SVGRepo_tracerCarrier" stroke-linecap="round" stroke-linejoin="round"></g><g id="SVGRepo_iconCarrier"><path d="M29,10c0,-0.552 -0.448,-1 -1,-1l-4,0c-0.552,0 -1,0.448 -1,1l-0,18c0,0.552 0.448,1 1,1l4,0c0.552,0 1,-0.448 1,-1l-0,-18Zm-20,6c-0,-0.552 -0.448,-1 -1,-1l-4,0c-0.552,0 -1,0.448 -1,1l-0,12c0,0.552 0.448,1 1,1l4,0c0.552,0 1,-0.448 1,-1l-0,-12Zm10,-12c0,-0.552 -0.448,-1 -1,-1l-4,0c-0.552,0 -1,0.448 -1,1l-0,24c0,0.552 0.448,1 1,1l4,0c0.552,0 1,-0.448 1,-1l-0,-24Z"></path><g id="Icon"></g></g></svg>